HIERARCHY
	ROOT pelvis
	{
		OFFSET 0 0 0 
		CHANNELS 6 Xposition Yposition Zposition Zrotation Xrotation Yrotation
		JOINT lfemur_phantom
		{
			OFFSET 0 0.0899607 0 
			CHANNELS 3 Zrotation Xrotation Yrotation
			JOINT lfemur
			{
				OFFSET 0 0 -0.426035 
				CHANNELS 3 Zrotation Xrotation Yrotation
				JOINT ltibia
				{
					OFFSET 0 0 -0.409933 
					CHANNELS 3 Zrotation Xrotation Yrotation
					JOINT lfoot
					{
						OFFSET 0.105631 0 0.00135511 
						CHANNELS 3 Zrotation Xrotation Yrotation
						End Site
						{
							OFFSET 0.0352103 0 0.000451703
						}
					}
				}
			}
		}
		JOINT rfemur_phantom
		{
			OFFSET 0 -0.0899607 0 
			CHANNELS 3 Zrotation Xrotation Yrotation
			JOINT rfemur
			{
				OFFSET 0 0 -0.430137 
				CHANNELS 3 Zrotation Xrotation Yrotation
				JOINT rtibia
				{
					OFFSET 0 0 -0.390377 
					CHANNELS 3 Zrotation Xrotation Yrotation
					JOINT rfoot
					{
						OFFSET 0.106801 0 -0.00121178 
						CHANNELS 3 Zrotation Xrotation Yrotation
						End Site
						{
							OFFSET 0.0356003 0 -0.000403927
						}
					}
				}
			}
		}
		JOINT lowerback_phantom
		{
			OFFSET -0.05 0 0.107967 
			CHANNELS 3 Zrotation Xrotation Yrotation
			JOINT lowerback
			{
				OFFSET 0.0167886 0 0.161801 
				CHANNELS 3 Zrotation Xrotation Yrotation
				JOINT upperback
				{
					OFFSET 0 0 0 
					CHANNELS 3 Zrotation Xrotation Yrotation
					JOINT lclavicle_phantom
					{
						OFFSET 0 0 0.199349 
						CHANNELS 3 Zrotation Xrotation Yrotation
						JOINT lclavicle
						{
							OFFSET 0 0.164108 -0.0174105 
							CHANNELS 3 Zrotation Xrotation Yrotation
							JOINT lhumerus
							{
								OFFSET 0 0 -0.275026 
								CHANNELS 3 Zrotation Xrotation Yrotation
								JOINT lradius
								{
									OFFSET 0 0 -0.248775 
									CHANNELS 3 Zrotation Xrotation Yrotation
									End Site
									{
										OFFSET 0 0 -0.082925
									}
								}
							}
						}
					}
					JOINT rclavicle_phantom
					{
						OFFSET 0 0 0.199349 
						CHANNELS 3 Zrotation Xrotation Yrotation
						JOINT rclavicle
						{
							OFFSET 0 -0.165322 -0.0298984 
							CHANNELS 3 Zrotation Xrotation Yrotation
							JOINT rhumerus
							{
								OFFSET 0 0 -0.273337 
								CHANNELS 3 Zrotation Xrotation Yrotation
								JOINT rradius
								{
									OFFSET 0 0 -0.254845 
									CHANNELS 3 Zrotation Xrotation Yrotation
									End Site
									{
										OFFSET 0 0 -0.0849483
									}
								}
							}
						}
					}
					JOINT LowerNeck_phantom
					{
						OFFSET 0 0 0.199349 
						CHANNELS 3 Zrotation Xrotation Yrotation
						JOINT LowerNeck
						{
							OFFSET -0.0127292 -0.000602123 0.105365 
							CHANNELS 3 Zrotation Xrotation Yrotation
							End Site
							{
								OFFSET -0.00424307 -0.000200708 0.0351217
							}
						}
					}
				}
			}
		}
	}
MOTION
Frames:	10
Frame Time:	0.0166667
-0.0210244 0.884079 0.074379 86.9258 -38.6346 81.3458 11.3848 4.59513 -4.24847 23.0083 4.28888 9.98806 -3.00389 -9.70374 27.7071 7.88819e-006 -1.66413e-007 8.44187 -8.81114 -8.35257 1.80765 -25.0262 -8.05873 16.7138 4.13329 5.47507 7.85996 2.49676e-007 -3.65192e-007 25.546 1.10008 2.97957 6.4313 3.38896 0.569541 1.1439 -0 0 -0 -11.8829 -9.1179 -1.90981 14.1735 30.5864 -21.2821 -3.95823 -6.70286 -120.66 5.55903e-007 2.02294 -20.7967 3.68375 5.35928 -0.344536 16.1925 -39.2902 -40.4312 10.3231 15.8229 -123.744 3.13195e-006 1.11237 -14.2707 -4.87737 4.14135 36.8605 18.4052 -24.5492 -59.5513 
-0.0207491 0.884016 0.074261 86.924 -38.3871 81.2829 11.244 4.58561 -4.23431 22.9517 4.31805 10.0816 -3.04129 -9.78669 27.6424 -5.7155e-006 2.92859e-006 8.00682 -8.93246 -8.37577 1.92072 -25.1417 -8.09853 16.7081 4.14513 5.48333 7.82224 4.46193e-007 -4.65376e-007 25.5288 1.14818 2.987 6.39126 3.47535 0.540968 1.1342 -0 0 -0 -11.8978 -9.02004 -1.89194 13.8027 30.3823 -21.5904 -3.96418 -6.61092 -121.045 5.94942e-008 2.03669 -20.8163 3.69069 5.32305 -0.34286 16.0129 -39.0939 -40.1068 10.2128 15.7243 -123.615 -2.72117e-006 1.01921 -14.3226 -4.82962 4.26204 36.8854 18.1839 -24.3982 -59.58 
-0.0204505 0.883946 0.07408 86.9263 -38.143 81.2218 11.1366 4.57722 -4.22086 22.8405 4.32896 10.1602 -3.05368 -9.81572 27.6238 2.00834e-006 9.0683e-007 7.90318 -9.06975 -8.40277 2.028 -25.2451 -8.14055 16.7153 4.1609 5.49786 7.7899 2.0539e-006 1.11667e-006 25.4929 1.22051 3.00405 6.34751 3.57857 0.505402 1.11895 -0 0 -0 -11.8716 -8.90143 -1.86305 13.3194 30.1554 -21.9235 -3.95027 -6.47867 -121.467 7.10122e-006 2.06365 -20.7883 3.67663 5.28662 -0.339218 15.8079 -38.8956 -39.7132 10.1162 15.6492 -123.482 1.56013e-005 0.94969 -14.3398 -4.75512 4.3957 36.933 17.9268 -24.2276 -59.6331 
-0.0201325 0.88388 0.073844 86.9334 -37.8979 81.156 11.0261 4.57058 -4.18856 22.7033 4.31571 10.1966 -3.02526 -9.76908 27.6996 -1.11239e-005 2.97963e-006 8.09336 -9.20194 -8.43011 2.13972 -25.3597 -8.18993 16.7284 4.17986 5.52086 7.77878 -9.37115e-007 6.22342e-007 25.4312 1.33895 3.02244 6.30727 3.65872 0.47647 1.1059 -0 0 -0 -11.775 -8.76403 -1.81919 12.7128 29.8957 -22.3097 -3.95033 -6.37197 -121.891 -1.77207e-006 2.09029 -20.7131 3.65436 5.25276 -0.335006 15.569 -38.7238 -39.2346 10.0289 15.5914 -123.344 2.51812e-005 0.940838 -14.3237 -4.64178 4.54182 37.0054 17.6265 -24.0412 -59.7377 
-0.0198011 0.883824 0.073552 86.9411 -37.6357 81.0873 10.89 4.55798 -4.13522 22.5535 4.28178 10.1914 -2.97433 -9.67979 27.828 2.02515e-006 2.33261e-006 8.46308 -9.32486 -8.45842 2.26537 -25.5064 -8.24478 16.7288 4.20217 5.55148 7.7836 -2.05405e-006 2.25647e-006 25.3591 1.49824 3.02884 6.26666 3.70762 0.458121 1.09296 -0 0 -0 -11.5984 -8.59633 -1.75716 11.9609 29.5732 -22.7532 -3.99106 -6.34348 -122.271 1.88643e-006 2.06374 -20.6516 3.63774 5.21877 -0.331326 15.3063 -38.5889 -38.6134 9.88812 15.4582 -123.185 1.69893e-005 0.949785 -14.306 -4.49665 4.72991 37.1045 17.2795 -23.8498 -59.8863 
-0.0194622 0.883786 0.073193 86.9493 -37.3309 81.0209 10.6974 4.53578 -4.06617 22.4288 4.24162 10.1591 -2.93023 -9.61369 27.9597 -1.48992e-006 2.23423e-006 8.81107 -9.47436 -8.49278 2.41266 -25.6777 -8.29412 16.7012 4.23101 5.59141 7.79136 -4.58981e-006 2.6845e-006 25.2974 1.67107 3.02605 6.21648 3.73818 0.431318 1.06437 -0 0 -0 -11.3416 -8.38966 -1.67628 11.0132 29.1729 -23.2155 -4.03716 -6.3373 -122.595 2.63142e-006 2.02058 -20.5965 3.63388 5.19513 -0.329478 15.0205 -38.4809 -37.7793 9.71713 15.2617 -123.046 -1.65051e-005 0.933038 -14.2489 -4.30804 4.96914 37.2715 16.8364 -23.6157 -60.1265 
-0.019121 0.883774 0.072789 86.9616 -36.9638 80.9657 10.455 4.50605 -4.00088 22.3312 4.20573 10.1229 -2.9153 -9.62369 28.0581 -1.60655e-005 3.82764e-006 9.0555 -9.6829 -8.53404 2.57678 -25.8634 -8.33286 16.6437 4.26878 5.64263 7.79599 2.68506e-006 5.72824e-007 25.258 1.89919 2.99684 6.19961 3.68664 0.411321 0.991509 -0 0 -0 -11.0347 -8.14295 -1.58221 9.92827 28.7023 -23.7074 -4.03775 -6.26798 -122.885 3.22907e-006 1.99042 -20.5215 3.65404 5.18812 -0.330863 14.6818 -38.3847 -36.7722 9.57466 15.0863 -122.947 -1.9065e-005 0.93994 -14.1443 -4.06822 5.19334 37.4781 16.3027 -23.2486 -60.4536 
-0.0187881 0.883778 0.072374 86.9733 -36.5275 80.9137 10.1825 4.46726 -3.94247 22.2334 4.17158 10.0905 -2.92421 -9.70344 28.1396 -7.39537e-006 -8.24985e-007 9.19388 -9.94831 -8.58537 2.75193 -26.0623 -8.36883 16.5725 4.3102 5.69747 7.79446 -2.56345e-006 -2.65294e-006 25.2369 2.16715 2.95257 6.22514 3.53889 0.391508 0.897124 -0 0 -0 -10.7253 -7.88114 -1.48773 8.81925 28.2106 -24.2383 -4.0062 -6.152 -123.165 1.61167e-006 1.99325 -20.4337 3.71485 5.17261 -0.335385 14.2861 -38.2568 -35.6737 9.48926 14.9911 -122.87 -3.09412e-005 1.03372 -13.9776 -3.79378 5.35517 37.7214 15.7504 -22.7494 -60.91 
-0.018465 0.883778 0.071987 86.9792 -36.0409 80.8543 9.92045 4.4201 -3.88534 22.1004 4.13104 10.0598 -2.94648 -9.82348 28.2123 -1.05052e-006 3.58566e-006 9.2737 -10.2251 -8.64184 2.93295 -26.2866 -8.41607 16.5052 4.34218 5.73909 7.78993 -1.7247e-007 1.20189e-006 25.2124 2.38524 2.90585 6.2492 3.42329 0.354559 0.847369 -0 0 -0 -10.4598 -7.61511 -1.40144 7.68103 27.7319 -24.757 -3.98003 -6.04667 -123.445 -4.46982e-006 2.06578 -20.3634 3.7447 5.12834 -0.335201 13.8717 -38.0582 -34.5705 9.4447 14.9633 -122.792 -1.11807e-005 1.17756 -13.767 -3.54736 5.51313 37.9488 15.2211 -22.2122 -61.4094 
-0.01816 0.883753 0.071686 86.988 -35.5337 80.7975 9.67701 4.37429 -3.8403 21.9301 4.08661 10.0378 -2.97027 -9.94483 28.2772 -3.66918e-006 -2.24165e-007 9.32102 -10.466 -8.6849 3.10323 -26.5488 -8.48698 16.456 4.36178 5.76578 7.79274 4.18565e-007 -3.29936e-007 25.1683 2.49587 2.87161 6.22933 3.43963 0.281245 0.881832 -0 0 -0 -10.2414 -7.34283 -1.32279 6.46518 27.2633 -25.2148 -3.9911 -6.00314 -123.709 3.37984e-006 2.12836 -20.3289 3.69973 5.06363 -0.326995 13.4465 -37.779 -33.5417 9.44883 15.0005 -122.741 9.36302e-007 1.30431 -13.5781 -3.36083 5.76304 38.0935 14.6513 -21.7454 -61.7853 
